:SAMPLES-PER-SECOND 30
:FULLY-SPECIFIED
:DEGREES
454
root  3.88728 38.7446 -38.1971 -4.1319 -78.7788 -1.70416
RightUpLeg  -16.6987 -8.39382 -7.35247
RightLeg  -1.33953 -5.20227 4.14556
RightFoot  4.90871 -0.988875 7.24403
RightToes  -5.8209e-011 0 -3.6325e-017
Spine  4.93186 -2.26194 -3.79625
Spine1  8.5668 -3.58176 3.81508
HEad  -1.93971 9.68314 -35.2816
LeftShoulder1  9.01143 -12.6523 -48.6922
LeftArm  -3.98262 -16.4635 -31.7075
LeftForeArm  36.5431 -44.1839 -8.37645
LeftHand  -0.244104 0.0205437 5.32207
RightShoulder  5.97578 9.28788 40.5466
RightArm  -5.15496 -18.2947 31.539
RightForeArm  18.9411 6.75123 6.52507
RightHand  -0.239343 -2.2912 -8.66154
LeftUpLeg  17.6958 7.36981 -1.7676
LeftLeg  14.7931 -4.1702 -2.96648
LeftFoot  -21.1488 0.675906 6.39013
LeftToes  1.76439e-010 -1.07097e-011 2.32476e-011
455
root  2.21285 38.6015 -38.284 -0.639038 -77.9411 -5.42747
RightUpLeg  -18.0188 -8.72243 -5.47126
RightLeg  5.40464 -4.96388 2.95732
RightFoot  9.16516 -0.623894 3.79314
RightToes  -5.8209e-011 0 -3.6325e-017
Spine  5.29164 -2.27092 -1.53896
Spine1  8.36092 -3.40278 3.29519
HEad  26.3947 51.4531 68.6951
LeftShoulder1  9.04568 -12.6569 -48.864
LeftArm  -4.56781 -15.5831 -30.9825
LeftForeArm  36.9029 -46.1476 -9.03201
LeftHand  -0.244104 0.0205437 5.32207
RightShoulder  5.99608 9.25001 40.8274
RightArm  -4.93625 -17.7259 31.1722
RightForeArm  19.2359 6.69995 6.55074
RightHand  -0.266226 -2.00219 -8.88673
LeftUpLeg  19.3392 7.27994 -0.171385
LeftLeg  16.9739 -5.12665 -1.97461
LeftFoot  -21.0418 0.441643 3.75853
LeftToes  1.76439e-010 -1.07097e-011 2.32476e-011
456
root  0.494273 38.5164 -38.2986 5.50055 -77.2474 -11.93
RightUpLeg  -19.2639 -12.161 -2.24703
RightLeg  12.0631 -0.177386 1.87665
RightFoot  11.3055 -0.237776 1.54338
RightToes  -5.8209e-011 0 -3.6325e-017
Spine  5.46894 -2.35398 2.40278
Spine1  8.28323 -2.95885 1.90198
HEad  30.3152 49.1613 63.5489
LeftShoulder1  9.16474 -12.6538 -49.5169
LeftArm  -4.8067 -13.6921 -29.8708
LeftForeArm  36.9226 -46.721 -9.23939
LeftHand  -0.244104 0.0205437 5.32207
RightShoulder  6.03998 9.2305 41.2185
RightArm  -4.52628 -16.8155 30.6232
RightForeArm  19.325 6.6581 6.65773
RightHand  -0.299313 -1.61993 -9.0641
LeftUpLeg  19.9146 5.81674 1.7411
LeftLeg  21.001 -4.28066 -1.41746
LeftFoot  -19.7731 0.0851061 -0.588549
LeftToes  1.76439e-010 -1.07097e-011 2.32476e-011
457
root  -1.15528 38.5537 -38.3089 11.9612 -76.2159 -18.476
RightUpLeg  -19.861 -15.4032 0.778301
RightLeg  17.38 3.13776 1.30247
RightFoot  8.8508 -0.0218785 0.460266
RightToes  -5.8209e-011 0 -3.6325e-017
Spine  5.42454 -2.36543 6.43059
Spine1  8.44639 -2.42656 0.87308
HEad  37.3203 50.7517 69.4924
LeftShoulder1  9.25706 -12.6338 -50.075
LeftArm  -4.38343 -11.178 -29.3045
LeftForeArm  36.1181 -45.2928 -8.78842
LeftHand  -0.244104 0.0205437 5.32207
RightShoulder  6.11318 9.30424 41.4988
RightArm  -4.31692 -15.5221 30.2037
RightForeArm  19.2364 6.48887 6.73874
RightHand  -0.295573 -1.53492 -8.75207
LeftUpLeg  17.7999 4.26074 4.07404
LeftLeg  28.2974 -2.90535 -1.35042
LeftFoot  -14.2783 -0.0315558 -5.19466
LeftToes  1.76439e-010 -1.07097e-011 2.32476e-011
458
root  -2.68962 38.6375 -38.3676 15.2756 -74.3771 -21.4506
RightUpLeg  -19.5149 -16.8665 2.29993
RightLeg  21.119 2.71917 0.887215
RightFoot  4.30494 0.0303763 -0.00081382
RightToes  -5.8209e-011 0 -3.6325e-017
Spine  5.3129 -2.28628 8.94808
Spine1  8.46268 -2.0135 0.8075
HEad  27.4452 41.4628 40.7182
LeftShoulder1  9.24804 -12.6024 -50.123
LeftArm  -3.1187 -8.58919 -29.7329
LeftForeArm  33.8624 -41.6112 -7.73164
LeftHand  -0.244104 0.0205437 5.32207
RightShoulder  6.13858 9.39279 41.3763
RightArm  -4.38343 -14.0924 30.246
RightForeArm  19.0427 6.70005 6.77761
RightHand  -0.269687 -1.6996 -8.30734
LeftUpLeg  12.1944 3.07749 6.17762
LeftLeg  38.8873 -1.31613 -0.730999
LeftFoot  -3.45045 0.47524 -6.98342
LeftToes  1.76439e-010 -1.07097e-011 2.32476e-011
